<svg width="54" height="46" viewBox="0 0 54 46" fill="none" xmlns="http://www.w3.org/2000/svg">
<g filter="url(#filter0_d)">
<path fill-rule="evenodd" clip-rule="evenodd" d="M38.6413 15.5494C38.8989 15.8506 39.0263 16.2418 38.9955 16.6369C38.9646 17.0321 38.7781 17.3987 38.4769 17.6563L24.1472 29.9539C23.4081 30.5839 22.3018 30.511 21.6518 29.7895L15.3909 22.9011C15.0306 22.5061 14.9084 21.9488 15.0703 21.4392C15.2323 20.9296 15.6538 20.5451 16.1761 20.4306C16.6983 20.316 17.2421 20.4888 17.6024 20.8839L23.0863 26.8608L36.5344 15.3403C36.8412 15.0879 37.2359 14.9681 37.6313 15.0073C38.0266 15.0466 38.3901 15.2417 38.6413 15.5494Z" fill="white"/>
</g>
<defs>
<filter id="filter0_d" x="0" y="0" width="54" height="45.3824" filterUnits="userSpaceOnUse" color-interpolation-filters="sRGB">
<feFlood flood-opacity="0" result="BackgroundImageFix"/>
<feColorMatrix in="SourceAlpha" type="matrix" values="0 0 0 0 0 0 0 0 0 0 0 0 0 0 0 0 0 0 127 0"/>
<feOffset/>
<feGaussianBlur stdDeviation="7.5"/>
<feColorMatrix type="matrix" values="0 0 0 0 1 0 0 0 0 1 0 0 0 0 1 0 0 0 1 0"/>
<feBlend mode="normal" in2="BackgroundImageFix" result="effect1_dropShadow"/>
<feBlend mode="normal" in="SourceGraphic" in2="effect1_dropShadow" result="shape"/>
</filter>
</defs>
</svg>
