<svg width="24" height="24" viewBox="0 0 24 24" fill="none" xmlns="http://www.w3.org/2000/svg">
<path fill-rule="evenodd" clip-rule="evenodd" d="M12 0C5.37258 0 0 5.37258 0 12C0 18.6274 5.37258 24 12 24C18.6274 24 24 18.6274 24 12C24 8.8174 22.7357 5.76516 20.4853 3.51472C18.2348 1.26428 15.1826 0 12 0ZM12 21.8182C6.57757 21.8182 2.18182 17.4224 2.18182 12C2.18182 6.57757 6.57757 2.18182 12 2.18182C17.4224 2.18182 21.8182 6.57757 21.8182 12C21.8182 17.4224 17.4224 21.8182 12 21.8182Z" fill="white"/>
<path fill-rule="evenodd" clip-rule="evenodd" d="M12.1199 14.5746H11.8799C10.0237 14.572 8.35982 15.7189 7.70175 17.4546C7.4728 18.0119 7.73899 18.6492 8.29629 18.8782C8.8536 19.1071 9.49098 18.841 9.71993 18.2836C10.0711 17.3783 10.9311 16.772 11.9017 16.7455H12.1417C13.1134 16.7691 13.9748 17.3764 14.3236 18.2836C14.614 18.7175 15.1711 18.8847 15.6524 18.6826C16.1337 18.4805 16.4044 17.9657 16.2981 17.4546C15.64 15.7189 13.9761 14.572 12.1199 14.5746Z" fill="white"/>
<path d="M8.18177 10.9091C9.08551 10.9091 9.81814 10.1765 9.81814 9.27272C9.81814 8.36898 9.08551 7.63635 8.18177 7.63635C7.27804 7.63635 6.54541 8.36898 6.54541 9.27272C6.54541 10.1765 7.27804 10.9091 8.18177 10.9091Z" fill="white"/>
<path d="M15.818 10.9091C16.7217 10.9091 17.4544 10.1765 17.4544 9.27272C17.4544 8.36898 16.7217 7.63635 15.818 7.63635C14.9143 7.63635 14.1816 8.36898 14.1816 9.27272C14.1816 10.1765 14.9143 10.9091 15.818 10.9091Z" fill="white"/>
</svg>
